PathFileType	4	(X/Y/Z)	S00_P01_T02_Participants1-2_P2_0-100.trc
DataRate	CameraRate	NumFrames	NumMarkers	Units	OrigDataRate	OrigDataStartFrame	OrigNumFrames
60	60	4	21	m	60	0	100
Frame#	Time	RHip			RKnee			RAnkle			RBigToe			RSmallToe			RHeel			LHip			LKnee			LAnkle			LBigToe			LSmallToe			LHeel			Neck			Head			Nose			RShoulder			RElbow			RWrist			LShoulder			LElbow			LWrist		
		X1	Y1	Z1	X2	Y2	Z2	X3	Y3	Z3	X4	Y4	Z4	X5	Y5	Z5	X6	Y6	Z6	X7	Y7	Z7	X8	Y8	Z8	X9	Y9	Z9	X10	Y10	Z10	X11	Y11	Z11	X12	Y12	Z12	X13	Y13	Z13	X14	Y14	Z14	X15	Y15	Z15	X16	Y16	Z16	X17	Y17	Z17	X18	Y18	Z18	X19	Y19	Z19	X20	Y20	Z20	X21	Y21	Z21
1	0.0166666666666666	-0.09985454383247305	0.891592153825228	-1.4924872690959319	-0.054589895546073755	0.49335161714283815	-1.4635613274607546	0.038271234266112786	0.1504227913473206	-1.6060726806638987	-0.01941922225277191	0.0580590744576832	-1.4418909849952561	-0.02148883050450342	0.07108943917458532	-1.498049305844227	0.0530627648093837	0.11967566591614834	-1.655410388628135	0.10412925185379147	0.9087452234460842	-1.4589563098305751	0.03046064437340478	0.5362746404904442	-1.2634604115734178	-0.002648481449097544	0.15127712574845228	-1.1920412883840854	-0.03534152020287093	0.08549075315622609	-1.016839260466924	-0.014132999254497602	0.07954761160479656	-1.0384385129199556	0.013460707958321974	0.09754560918647862	-1.2305605214018676	-0.038232072440493835	1.4663525054387416	-1.412550668637249	-0.06587709952437673	1.7008878034163726	-1.2675888581722452	0.0016923728087793895	1.559479767857479	-1.1657946009344353	-0.20148318785068142	1.384757378268363	-1.5005815969336618	-0.29126645818450264	1.1300262380779986	-1.5383861850188933	-0.36942758967032696	0.9182117654878243	-1.3721035140074642	0.13076752400979422	1.4185306589795803	-1.4683463398632282	0.26270326171600317	1.1671979338013465	-1.494617671188419	0.35463254276602496	0.9377377304713111	-1.457950071762588
2	0.0333333333333333	-0.09542525936394979	0.8956601478117744	-1.4556042351774279	-0.049008264592614	0.4938293775416271	-1.45652989871153	0.03847801221536285	0.15046718127375186	-1.6031582498091932	-0.01893449976042849	0.06078017043008517	-1.4441658864159796	-0.02170445912781164	0.07229393941082231	-1.4988391825188838	0.05440665541230505	0.11769423137038179	-1.6497566122349296	0.10071723690326363	0.9082867353873165	-1.4465696738127223	0.037682714444263424	0.5291465823978585	-1.242593083840804	0.00042944684792459273	0.15431690786005986	-1.1827121875038886	-0.03308921291768527	0.08356969566677046	-1.0156139411994567	-0.013130074295308974	0.07729602294406261	-1.039046456397501	0.013147985044246439	0.1006431699307651	-1.2198756085870455	-0.029908563647718094	1.4653620990334708	-1.3964858464813927	-0.05030655991911156	1.7015482120768457	-1.2619099163435685	-0.002420317589417499	1.5571788245951133	-1.1811004324038656	-0.1869513191306943	1.3882852730681607	-1.4806846443206914	-0.2883239964733049	1.138555876571581	-1.519845074673645	-0.3699822606453244	0.9325693762984959	-1.3615690178789623	0.1404477705799845	1.4132984264615656	-1.4531903004454794	0.2714552271082911	1.1615439008100819	-1.471064286690018	0.3594463665724556	0.9320159286709572	-1.4383584093558022
3	0.05	-0.0911338069255301	0.9002590570659311	-1.4215575569345775	-0.04409973860319946	0.4942862022986483	-1.4499424181760585	0.03843931959968213	0.1504715533427633	-1.600386597127899	-0.018816933402040117	0.06329034732568468	-1.4454862900374117	-0.02232932967528751	0.07366315347808243	-1.4996691737862249	0.055419368750387776	0.11658720515658628	-1.6448833627828625	0.09720199175920112	0.9080798844258196	-1.4346185098781312	0.04490296203786441	0.5227327874168544	-1.2224064807806696	0.002682816540515291	0.156499214833135	-1.176163351144814	-0.031421649434050604	0.08161993774658421	-1.0144904741864313	-0.012852252081842687	0.0752686173238814	-1.039838172733114	0.012603841308037947	0.10383686716229706	-1.2103670622787643	-0.02146758624335814	1.4645732958469213	-1.3811010000905788	-0.03507516306286931	1.7021927704711857	-1.2551060093159716	-0.005323815936199806	1.5555121777521184	-1.1919450038835444	-0.17316108998605076	1.3925308982971194	-1.4597526976947373	-0.28597606308606477	1.1475095755406157	-1.5011532604615125	-0.37141471065777	0.9469261642626965	-1.3497303747919425	0.14905497197529552	1.4089834475150045	-1.43955871656915	0.27943246023801127	1.1557720804484453	-1.4489295774224928	0.3635767731251191	0.9264522765272566	-1.4192295497769492
4	0.0666666666666666	-0.08786736391690216	0.9049321907649083	-1.3928704408794044	-0.04072976892071146	0.49492845990316386	-1.4437548151082644	0.037866390587060664	0.15065268743209317	-1.5979416859343334	-0.01928774607363707	0.065502833576135	-1.445290320383491	-0.023422368937608507	0.07526799477916907	-1.5002589975361094	0.0558888189584065	0.11697410308753937	-1.6415000155225588	0.0934926187050786	0.9080862478436118	-1.4231340468339018	0.05127714035925513	0.5176337434335632	-1.2039577995786594	0.0035877139445707473	0.1573485843020214	-1.173562436033749	-0.030358786093458597	0.07970049312304352	-1.0133480270731536	-0.013339725660447256	0.07373380814703585	-1.0406178690273549	0.011563420392104161	0.10690400163880581	-1.2025357889270125	-0.012884170866556053	1.4641272367755558	-1.3669498634474528	-0.020318690168195805	1.702744655046002	-1.2462788914455092	-0.006024332061501604	1.5548460745656716	-1.1953861509300439	-0.16073459932805598	1.3978069602274086	-1.437272602536955	-0.28450432471359755	1.1574223031690702	-1.482216906392713	-0.3744890866101303	0.9616084076394041	-1.3356525346919144	0.15605478901716915	1.4061662545852223	-1.4283493623747072	0.2858479344102153	1.1499053950662121	-1.4297434933617303	0.3664280981626599	0.921172963878439	-1.401036775382437
